<svg width="1729" height="1795" viewBox="0 0 1729 1795" fill="none" xmlns="http://www.w3.org/2000/svg">
<path d="M1092.01 1123.87L1728.93 922.436L1215.52 760.056L1303.57 500.693L1077.39 673.145L864.488 0L651.609 673.076L425.688 501.134L513.434 760.056L0 922.436L636.687 1123.8L864.14 1795L1091.99 1123.9L1092.01 1123.87ZM864.256 1408.6L673.517 845.713L864.836 991.315L1055.23 846.154L864.279 1408.6H864.256ZM1317.33 922.436L1141.51 978.04L1175.6 877.623L1317.33 922.436ZM864.488 411.601L972.494 753.117L864.743 835.27L756.528 752.908L864.488 411.578V411.601ZM411.601 922.436L553.281 877.623L587.302 977.994L411.601 922.436Z" fill="white"/>
</svg>
